<svg xmlns="http://www.w3.org/2000/svg" xmlns:xlink="http://www.w3.org/1999/xlink" width="452.669" height="372.786" viewBox="0 0 452.669 372.786"><defs><style>.a{fill:#002856;stroke:rgba(0,0,0,0);stroke-miterlimit:10;}.b{fill:#ffb71b;}.c{filter:url(#a);}</style><filter id="a" x="370.251" y="282.343" width="82.419" height="90.442" filterUnits="userSpaceOnUse"><feOffset dx="1" dy="1" input="SourceAlpha"/><feGaussianBlur stdDeviation="0.5" result="b"/><feFlood flood-opacity="0.149"/><feComposite operator="in" in2="b"/><feComposite in="SourceGraphic"/></filter></defs><g transform="translate(-1175.567 -682.307)"><path class="a" d="M-3601.661,7792.738H-3783.09a94.017,94.017,0,0,0-24.3-19.03c-11.606-6.389-24.037-10.631-36.059-14.734l-.014,0c-7.975-2.722-16.222-5.536-24.162-8.954a102.73,102.73,0,0,1-14.912-7.726,64.522,64.522,0,0,1-13.37-11.157c-6.248-6.9-11.379-15.776-15.688-27.121-3.4-8.94-6.23-19.257-8.922-32.467-.435-2.136-.885-4.417-1.415-7.178V7507.805a59.623,59.623,0,0,1,4.715-23.354,59.8,59.8,0,0,1,12.859-19.071,59.8,59.8,0,0,1,19.072-12.858,59.633,59.633,0,0,1,23.355-4.715h340.271v264.932a79.5,79.5,0,0,1-6.287,31.14,80.021,80.021,0,0,1-7.376,13.589,80.6,80.6,0,0,1-9.769,11.839,80.57,80.57,0,0,1-11.84,9.769,80.043,80.043,0,0,1-13.589,7.376A79.5,79.5,0,0,1-3601.661,7792.738Z" transform="translate(5098 -6765)"/><g class="c" transform="matrix(1, 0, 0, 1, 1175.57, 682.31)"><path class="b" d="M65.113,23.247c.369-8.325-4.057-18.672-11.5-22.031C41.675-4.172,34.338,9.5,30.368,19.565,26.678,28.924,21.1,36.983,15.02,44.682,10.624,50.248,1.527,56.143.31,63.874c-4.244,26.983,36.416-.683,41.565-4.824C52.359,50.62,64.44,38.365,65.113,23.247Z" transform="matrix(0.98, 0.21, -0.21, 0.98, 386.46, 282.84)"/></g></g></svg>