<svg xmlns="http://www.w3.org/2000/svg" width="447.978" height="461.533" viewBox="0 0 447.978 461.533">
  <path id="Path_12" data-name="Path 12" d="M3418.332,696.109c19.834-36.689,26.914-78.651,37.395-119.019s25.855-81.679,57.362-109.008c18.862-16.36,42.268-26.551,65.922-34.542,46.438-15.689,95.407-23.9,140.4-43.344,44.846-19.378,87.117-53.05,100.442-100.018a.373.373,0,0,0-.355-.472l-447.247.034a.362.362,0,0,0-.361.362l.01,460.769a.372.372,0,0,0,.6.286A185.457,185.457,0,0,0,3418.332,696.109Z" transform="translate(-3371.891 -289.705)" fill="#fff"/>
</svg>
